<svg width="1024" height="1024" viewBox="0 0 1024 1024" fill="none" xmlns="http://www.w3.org/2000/svg"><rect width="1024" height="1024" rx="180" fill="#a64a97"/><path d="M417.496 700.35c-7.992 7.46-14.177 12.453-20.497 16.103a100 100 0 0 1-100 0c-11.402-6.583-22.362-17.543-44.281-39.46-21.92-21.92-32.88-32.88-39.462-44.283a100 100 0 0 1 0-100c6.582-11.4 17.542-22.36 39.462-44.28l94.281-94.281c21.919-21.919 32.879-32.879 44.28-39.462a100 100 0 0 1 100.001 0c11.4 6.583 22.36 17.543 44.28 39.462s32.88 32.88 39.463 44.281a100 100 0 0 1 0 100c-3.65 6.32-8.643 12.507-16.106 20.497m-93.854-93.854c-7.463 7.99-12.456 14.177-16.106 20.497a100 100 0 0 0 0 100c6.583 11.403 17.543 22.363 39.463 44.28 21.92 21.92 32.88 32.88 44.28 39.463a100 100 0 0 0 100 0c11.403-6.583 22.363-17.543 44.283-39.463l94.28-94.28c21.92-21.92 32.88-32.88 39.46-44.28a100 100 0 0 0 0-100c-6.58-11.402-17.54-22.362-39.46-44.281-21.92-21.92-32.88-32.88-44.28-39.462a100 100 0 0 0-100 0c-6.323 3.649-12.506 8.643-20.5 16.105" stroke="#f0ccff" stroke-width="66.667" stroke-linecap="round"/></svg>